<?xml version="1.0" encoding="UTF-8"?>
<!DOCTYPE svg PUBLIC "-//W3C//DTD SVG 1.1//EN" "http://www.w3.org/Graphics/SVG/1.1/DTD/svg11.dtd">
<svg xmlns="http://www.w3.org/2000/svg" version="1.1" width="1563px" height="1563px" style="shape-rendering:geometricPrecision; text-rendering:geometricPrecision; image-rendering:optimizeQuality; fill-rule:evenodd; clip-rule:evenodd" xmlns:xlink="http://www.w3.org/1999/xlink">
<g><path style="opacity:1" fill="#faf9f8" d="M -0.5,-0.5 C 520.5,-0.5 1041.5,-0.5 1562.5,-0.5C 1562.5,520.5 1562.5,1041.5 1562.5,1562.5C 1041.5,1562.5 520.5,1562.5 -0.5,1562.5C -0.5,1041.5 -0.5,520.5 -0.5,-0.5 Z"/></g>
<g><path style="opacity:1" fill="#000000" d="M 477.5,474.5 C 524.167,474.5 570.833,474.5 617.5,474.5C 614.21,501.065 612.044,527.732 611,554.5C 609.685,600.49 609.185,646.49 609.5,692.5C 568.167,692.5 526.833,692.5 485.5,692.5C 485.742,645.825 485.242,599.158 484,552.5C 482.489,526.421 480.322,500.421 477.5,474.5 Z"/></g>
<g><path style="opacity:1" fill="#000000" d="M 871.5,691.5 C 827.67,692.499 783.67,692.832 739.5,692.5C 725.965,641.032 711.799,589.698 697,538.5C 689.889,516.444 680.722,495.277 669.5,475C 719.499,474.5 769.499,474.333 819.5,474.5C 820.308,491.994 822.475,509.327 826,526.5C 841.642,581.403 856.808,636.403 871.5,691.5 Z"/></g>
<g><path style="opacity:1" fill="#050505" d="M 1077.5,692.5 C 1072.64,692.819 1067.97,692.486 1063.5,691.5C 1078.2,635.034 1093.37,578.7 1109,522.5C 1112.48,506.655 1114.98,490.655 1116.5,474.5C 1126.17,474.334 1135.84,474.5 1145.5,475C 1138.04,489.03 1131.54,503.53 1126,518.5C 1109.68,576.614 1093.51,634.614 1077.5,692.5 Z"/></g>
<g><path style="opacity:1" fill="#8d8c8c" d="M 871.5,691.5 C 872.043,691.56 872.376,691.893 872.5,692.5C 828.002,693.831 783.669,693.831 739.5,692.5C 783.67,692.832 827.67,692.499 871.5,691.5 Z"/></g>
<g><path style="opacity:1" fill="#8d8c8c" d="M 1063.5,691.5 C 1067.97,692.486 1072.64,692.819 1077.5,692.5C 1072.65,693.814 1067.65,693.814 1062.5,692.5C 1062.62,691.893 1062.96,691.56 1063.5,691.5 Z"/></g>
<g><path style="opacity:1" fill="#000000" d="M 394.5,758.5 C 396.5,758.5 398.5,758.5 400.5,758.5C 400.5,770.5 400.5,782.5 400.5,794.5C 398.5,794.5 396.5,794.5 394.5,794.5C 394.5,782.5 394.5,770.5 394.5,758.5 Z"/></g>
<g><path style="opacity:1" fill="#0b0b0b" d="M 447.5,758.5 C 449.792,758.244 451.959,758.577 454,759.5C 457.48,768.946 461.147,778.279 465,787.5C 468.202,778.061 471.702,768.728 475.5,759.5C 477.5,758.167 479.5,758.167 481.5,759.5C 476.927,771.057 472.26,782.557 467.5,794C 465.231,794.758 463.064,794.591 461,793.5C 456.395,781.849 451.895,770.182 447.5,758.5 Z"/></g>
<g><path style="opacity:1" fill="#0c0c0c" d="M 524.5,758.5 C 526.604,758.201 528.604,758.534 530.5,759.5C 533.468,764.964 536.634,770.297 540,775.5C 543.5,770 547,764.5 550.5,759C 552.5,758.333 554.5,758.333 556.5,759C 552.207,766.419 548.04,773.919 544,781.5C 543.501,785.821 543.334,790.154 543.5,794.5C 541.5,794.5 539.5,794.5 537.5,794.5C 537.666,790.154 537.499,785.821 537,781.5C 532.3,774.099 528.134,766.432 524.5,758.5 Z"/></g>
<g><path style="opacity:1" fill="#050505" d="M 657.5,758.5 C 664.508,758.334 671.508,758.5 678.5,759C 684.178,760.857 686.345,764.691 685,770.5C 684.052,772.57 682.552,774.07 680.5,775C 688.111,780.604 688.444,786.604 681.5,793C 673.571,794.363 665.571,794.863 657.5,794.5C 657.5,782.5 657.5,770.5 657.5,758.5 Z"/></g>
<g><path style="opacity:1" fill="#0a0a0a" d="M 735.5,758.5 C 742.175,758.334 748.842,758.5 755.5,759C 764.192,762.561 766.692,768.727 763,777.5C 761.316,779.351 759.483,781.018 757.5,782.5C 759.584,786.336 761.917,790.003 764.5,793.5C 762.167,794.833 759.833,794.833 757.5,793.5C 755.625,790.249 753.625,787.082 751.5,784C 748.183,783.502 744.85,783.335 741.5,783.5C 741.5,787.167 741.5,790.833 741.5,794.5C 739.5,794.5 737.5,794.5 735.5,794.5C 735.5,782.5 735.5,770.5 735.5,758.5 Z"/></g>
<g><path style="opacity:1" fill="#0f0f0f" d="M 823.5,758.5 C 840.676,756.192 849.176,763.525 849,780.5C 843.146,794.168 833.312,798.002 819.5,792C 812.221,786.164 809.721,778.664 812,769.5C 815.07,764.927 818.904,761.261 823.5,758.5 Z"/></g>
<g><path style="opacity:1" fill="#080808" d="M 897.5,758.5 C 900.365,758.055 902.865,758.722 905,760.5C 910.667,768.167 916.333,775.833 922,783.5C 922.5,775.173 922.666,766.84 922.5,758.5C 924.5,758.5 926.5,758.5 928.5,758.5C 928.5,770.5 928.5,782.5 928.5,794.5C 925.635,794.945 923.135,794.278 921,792.5C 915.333,784.833 909.667,777.167 904,769.5C 903.5,777.827 903.334,786.16 903.5,794.5C 901.5,794.5 899.5,794.5 897.5,794.5C 897.5,782.5 897.5,770.5 897.5,758.5 Z"/></g>
<g><path style="opacity:1" fill="#0e0d0d" d="M 984.5,758.5 C 988.514,758.334 992.514,758.501 996.5,759C 999.414,759.133 1001.75,760.3 1003.5,762.5C 1002.97,764.23 1001.97,765.564 1000.5,766.5C 996.394,764.293 992.061,763.46 987.5,764C 984.141,766.034 983.808,768.368 986.5,771C 990.677,773.059 995.01,774.726 999.5,776C 1006.65,783.255 1005.65,789.255 996.5,794C 989.193,795.692 982.693,794.192 977,789.5C 976.376,787.536 976.876,785.869 978.5,784.5C 983.648,788.149 989.315,789.316 995.5,788C 998.167,785.667 998.167,783.333 995.5,781C 989.089,779.868 983.589,777.034 979,772.5C 977.025,766.177 978.858,761.51 984.5,758.5 Z"/></g>
<g><path style="opacity:1" fill="#0f0f0f" d="M 1062.5,758.5 C 1073.34,756.341 1081.51,760.007 1087,769.5C 1089.76,779.809 1086.59,787.643 1077.5,793C 1064.31,797.316 1055.14,793.149 1050,780.5C 1048.89,770.121 1053.06,762.787 1062.5,758.5 Z"/></g>
<g><path style="opacity:1" fill="#070707" d="M 1143.5,770.5 C 1143.22,769.711 1142.72,769.044 1142,768.5C 1141.5,777.16 1141.33,785.827 1141.5,794.5C 1139.83,794.5 1138.17,794.5 1136.5,794.5C 1136.5,782.5 1136.5,770.5 1136.5,758.5C 1138.79,758.244 1140.96,758.577 1143,759.5C 1149,767.5 1155,775.5 1161,783.5C 1161.5,775.173 1161.67,766.84 1161.5,758.5C 1163.5,758.5 1165.5,758.5 1167.5,758.5C 1167.5,770.5 1167.5,782.5 1167.5,794.5C 1165.47,794.662 1163.47,794.495 1161.5,794C 1155.37,786.227 1149.37,778.393 1143.5,770.5 Z"/></g>
<g><path style="opacity:1" fill="#edeceb" d="M 663.5,763.5 C 667.514,763.334 671.514,763.501 675.5,764C 680.833,767 680.833,770 675.5,773C 671.514,773.499 667.514,773.666 663.5,773.5C 663.5,770.167 663.5,766.833 663.5,763.5 Z"/></g>
<g><path style="opacity:1" fill="#f1f0ef" d="M 741.5,763.5 C 746.267,763.191 750.934,763.691 755.5,765C 759.5,769 759.5,773 755.5,777C 750.934,778.309 746.267,778.809 741.5,778.5C 741.5,773.5 741.5,768.5 741.5,763.5 Z"/></g>
<g><path style="opacity:1" fill="#f6f5f4" d="M 826.5,763.5 C 838.737,763.563 843.904,769.563 842,781.5C 837.251,789.628 830.751,791.461 822.5,787C 817.913,782.772 816.413,777.606 818,771.5C 820.074,767.923 822.907,765.256 826.5,763.5 Z"/></g>
<g><path style="opacity:1" fill="#f6f5f4" d="M 1065.5,763.5 C 1079.05,763.878 1083.88,770.545 1080,783.5C 1071.53,791.956 1063.86,791.29 1057,781.5C 1054.76,772.983 1057.59,766.983 1065.5,763.5 Z"/></g>
<g><path style="opacity:1" fill="#696968" d="M 1143.5,770.5 C 1142.83,778.5 1142.17,786.5 1141.5,794.5C 1141.33,785.827 1141.5,777.16 1142,768.5C 1142.72,769.044 1143.22,769.711 1143.5,770.5 Z"/></g>
<g><path style="opacity:1" fill="#c2c1c1" d="M 676.5,779.5 C 672.5,779.5 668.5,779.5 664.5,779.5C 664.5,782.5 664.5,785.5 664.5,788.5C 668.167,788.5 671.833,788.5 675.5,788.5C 671.702,789.483 667.702,789.817 663.5,789.5C 663.5,785.833 663.5,782.167 663.5,778.5C 668.032,778.182 672.366,778.515 676.5,779.5 Z"/></g>
<g><path style="opacity:1" fill="#f6f5f4" d="M 676.5,779.5 C 679.05,779.884 680.383,781.384 680.5,784C 680.252,787.082 678.585,788.582 675.5,788.5C 671.833,788.5 668.167,788.5 664.5,788.5C 664.5,785.5 664.5,782.5 664.5,779.5C 668.5,779.5 672.5,779.5 676.5,779.5 Z"/></g>
<g><path style="opacity:1" fill="#8f8e8e" d="M 1017.5,860.5 C 1022.35,859.186 1027.35,859.186 1032.5,860.5C 1032.38,861.107 1032.04,861.44 1031.5,861.5C 1027.03,860.514 1022.36,860.181 1017.5,860.5 Z"/></g>
<g><path style="opacity:1" fill="#000000" d="M 485.5,860.5 C 526.833,860.5 568.167,860.5 609.5,860.5C 607.675,928.693 610.341,996.693 617.5,1064.5C 570.833,1064.5 524.167,1064.5 477.5,1064.5C 484.413,996.687 487.08,928.687 485.5,860.5 Z"/></g>
<g><path style="opacity:1" fill="#010101" d="M 1017.5,860.5 C 1022.36,860.181 1027.03,860.514 1031.5,861.5C 1016.91,914.787 1002.41,968.121 988,1021.5C 984.538,1035.66 985.038,1049.66 989.5,1063.5C 940.67,1064.5 891.67,1064.83 842.5,1064.5C 823.992,996.803 805.325,929.136 786.5,861.5C 830.496,860.333 874.496,860.167 918.5,861C 935.383,920.028 951.883,979.194 968,1038.5C 984.215,978.961 1000.71,919.627 1017.5,860.5 Z"/></g>
<g><path style="opacity:1" fill="#7d7d7c" d="M 989.5,1063.5 C 990.043,1063.56 990.376,1063.89 990.5,1064.5C 941.002,1065.83 891.668,1065.83 842.5,1064.5C 891.67,1064.83 940.67,1064.5 989.5,1063.5 Z"/></g>
</svg>
